<?xml version="1.0" standalone="yes"?>
<svg xmlns="http://www.w3.org/2000/svg" width="200" height="200">
<path style="fill:transparent; stroke:none;" d="M0 0L0 200L200 200L200 0L0 0z"/>
<path style="fill:#721c99; stroke:none;" d="M59 46.5332C43.6544 50.2386 49.6776 66.2805 42.3511 75.9066C35.7762 84.5452 26.1165 80.4142 18.0039 85.0895C7.29991 91.2582 7.1394 108.063 18.0394 114.08C26.0813 118.52 34.9652 115.309 41.7755 123.043C50.3517 132.783 43.4533 152.246 62 152.956C76.8135 153.523 86.1917 135.334 74.6705 124.529C66.0733 116.467 53.1203 122.339 45.9946 110.996C35.785 94.7436 49.6901 78.0791 67.0039 80.1713C87.9834 82.7065 77.554 103.847 90.0185 113.581C98.7903 120.431 110.116 115.221 117.297 126.001C124.23 136.409 120.444 159.946 142 153.196C156.649 148.609 150.368 133.621 157.8 124.174C164.221 116.013 172.924 119.301 180.999 115.427C190.784 110.734 193.414 96.1773 185.521 88.5293C178.462 81.6902 165.423 82.5644 160.005 91.0401C156.11 97.1344 158.063 104.733 154.721 110.999C148.825 122.057 132.103 123.912 123.044 115.786C113.457 107.187 115.494 89.7537 126.004 82.7029C136.247 75.8312 161.394 78.7836 152.852 57C149.41 48.2214 138.481 44.1746 130.004 48.0748C115.042 54.9588 125.525 77.9643 107 82.4668C103.84 83.2348 100.226 83.1723 97 82.9066C73.7348 80.9903 85.9406 40.028 59 46.5332z"/>
<path style="fill:#550155; stroke:none;" d="M145 48L146 49L145 48M74 50L75 51L74 50M79 58L80 59L79 58z"/>
<path style="fill:#a21aa2; stroke:none;" d="M46 62L47 63L46 62z"/>
<path style="fill:#550155; stroke:none;" d="M120 66L121 67L120 66M148 75L149 76L148 75M73 81L74 82L73 81M157 97L158 98L157 97M84 106L85 107L84 106z"/>
<path style="fill:#ff01ff; stroke:none;" d="M188 108L189 109L188 108z"/>
<path style="fill:#550155; stroke:none;" d="M13 110L14 111L13 110z"/>
<path style="fill:#ff01ff; stroke:none;" d="M15 112L16 113L15 112z"/>
<path style="fill:#550155; stroke:none;" d="M88 112L89 113L88 112M154 112L155 113L154 112M18 114L19 115L18 114M168 117L169 118L168 117M111 119L112 120L111 119z"/>
<path style="fill:#ff01ff; stroke:none;" d="M145 119L146 120L145 119M73 123L74 124L73 123z"/>
<path style="fill:#a21aa2; stroke:none;" d="M79 139L80 140L79 139z"/>
<path style="fill:#550155; stroke:none;" d="M47 142L48 143L47 142M50 147L51 148L50 147z"/>
<path style="fill:#ff01ff; stroke:none;" d="M52 149L53 150L52 149z"/>
<path style="fill:#550155; stroke:none;" d="M125 149L126 150L125 149z"/>
<path style="fill:#ff01ff; stroke:none;" d="M72 150L73 151L72 150z"/>
</svg>
