<?xml version="1.0" standalone="yes"?>
<svg xmlns="http://www.w3.org/2000/svg" width="194" height="98">
<path style="fill:transparent; stroke:none;" d="M0 0L0 98L194 98L194 0L0 0z"/>
<path style="fill:#711c98; stroke:none;" d="M78.1481 6.02778C74.3103 8.28823 75.0988 13.6243 72.4861 16.8665C69.4353 20.6525 49.2046 26.5994 62.2245 34.544C65.2372 36.3823 68.9987 35.9341 71.7215 38.4336C76.3584 42.6905 74.4849 53.8574 83.9846 51.5478C102.079 47.1488 77.5824 35.6833 75.6034 32.8912C71.9271 27.7045 75.6036 20.2176 82.0008 20.2176C91.4749 20.2176 88.7068 30.2549 94.1481 34.4005C97.6755 37.0878 102.405 36.1554 105.258 40.1335C108.568 44.7474 109.659 56.3672 118.772 50.821C122.772 48.3863 121.697 42.7091 124.653 39.3943C127.467 36.2377 131.48 36.8918 134.772 34.8248C140.616 31.1545 137.86 21.3774 130.997 21.2423C122.279 21.0706 119.678 46.5129 108.434 33.7716C97.2962 21.1495 126.288 21.4021 121.396 9.05864C119.838 5.12844 114.628 4.055 111.109 6.02778C104.9 9.50795 107.734 21.1198 98.0008 20.4668C88.3877 19.822 90.4213 -1.20103 78.1481 6.02778z"/>
<path style="fill:#ff01ff; stroke:none;" d="M135 22L136 23L135 22M74 42L75 43L74 42M77 50L78 51L77 50z"/>
<path style="fill:#3b333b; stroke:none;" d="M10 72L10 93L23 93L23 90L14 90L14 84L21 84L21 81L14 81L14 76L22 76L22 72L10 72M24 93L32.939 89.4606L41 93C40.6258 88.7137 38.124 71.7431 32.0787 72.466C26.507 73.1323 24.5997 88.5503 24 93M53 85L53 90L43 89L42 93C45.8076 93.3001 50.2982 94.7091 53.8519 92.6813C63.0716 87.4203 52.9978 81.0212 47 81L47 75L56 76L56 72C52.8311 72 48.0878 71.1793 45.3179 73.0278C37.1185 78.4997 47.9437 84.5831 53 85M58 72L64 93L68 93L74 72L69 72L66 80C63.8226 75.952 62.8639 72.7934 58 72M84 72L84 93C87.7161 93 94.5244 94.2776 97.3966 91.3966C100.211 88.5737 98.9664 75.3715 95.6821 73.179C92.622 71.1362 87.4982 72 84 72M103 72C103 76.9106 101.013 87.3657 104.028 91.436C106.791 95.167 115.404 94.437 117.821 90.6968C120.725 86.2033 119 77.1686 119 72L115 72C115 79.9091 117.38 89.662 107 90L107 72L103 72M123 72L123 93C126.829 93 132.432 93.9972 135.852 91.9722C140.368 89.2983 140.631 76.9991 136.682 73.7423C133.271 70.9288 127.114 72 123 72M158 81L151 81L151 85L154 85L154 90L147 90L148.603 76.6427L157 72C153.688 72 149.306 71.3044 146.228 72.7423C141.351 75.0208 141.407 89.0442 145.318 92.142C149.09 95.1301 156.946 94.2741 157.852 88.9421C158.286 86.3876 158 83.5843 158 81M162 72L162 93L175 93L175 90L166 90L166 84L173 84L173 81L166 81L166 76L174 76L174 72L162 72z"/>
<path style="fill:#ffffff; stroke:none;" d="M174 72L175 73L174 72z"/>
<path style="fill:#3b333b; stroke:none;" d="M176 72L176 76L181 76L181 93L185 93L185 76L190 76L190 72L176 72z"/>
<path style="fill:transparent; stroke:none;" d="M88 75L88 81C94.5791 80.4881 94.4258 75.7397 88 75M127 76L127 90C136.356 89.773 135 83.6893 135 76L127 76M32 77L30 85L35 85L32 77M88 84L88 90C95.6713 89.7481 95.6713 84.2519 88 84z"/>
</svg>
